<svg xmlns="http://www.w3.org/2000/svg" width="212" height="64.538" viewBox="0 0 212 64.538">
  <g id="logo" transform="translate(-17.1 -4.9)">
    <path id="XMLID_14_" d="M42.323,12.628,49.135,4.9l.476,64.318-.037-.037v.147a25.34,25.34,0,0,1-4.029-.952A17.447,17.447,0,0,1,41.7,66.654l.037-.22-.037-.11.623-53.7Z" transform="translate(-15.59 0)" fill="#cf4827" fill-rule="evenodd"/>
    <path id="Path_390" data-name="Path 390" d="M177.375,110.221a11.188,11.188,0,0,0-1.721-6.593,5.952,5.952,0,0,0-9.523,0,11.188,11.188,0,0,0-1.721,6.593,11.188,11.188,0,0,0,1.721,6.593,5.952,5.952,0,0,0,9.523,0,11.11,11.11,0,0,0,1.721-6.593Zm-12.966-8.095a7.918,7.918,0,0,1,3.04-3.077,9.064,9.064,0,0,1,4.4-1.026,8.282,8.282,0,0,1,6.849,3.333,13.843,13.843,0,0,1,2.637,8.827,13.843,13.843,0,0,1-2.637,8.827,8.282,8.282,0,0,1-6.849,3.333,8.861,8.861,0,0,1-4.4-1.026,7.918,7.918,0,0,1-3.04-3.077v3.48H160.6V89.6h3.809v12.527Z" transform="translate(-90.94 -53.676)" fill="#0e4775" fill-rule="evenodd"/>
    <path id="Path_391" data-name="Path 391" d="M251.2,123.908v1.868H233.692a8.859,8.859,0,0,0,2.381,6.007,8.034,8.034,0,0,0,5.9,2.051,16.282,16.282,0,0,0,4.249-.549,20.278,20.278,0,0,0,4.1-1.612v3.589a21.712,21.712,0,0,1-8.571,1.758c-3.7,0-6.63-1.062-8.791-3.223a11.772,11.772,0,0,1-3.26-8.717c0-3.809,1.026-6.813,3.077-9.047a10.658,10.658,0,0,1,8.278-3.333,9.6,9.6,0,0,1,7.4,3,11.757,11.757,0,0,1,2.747,8.2Zm-3.809-1.1a7.385,7.385,0,0,0-1.758-5.018,5.8,5.8,0,0,0-4.505-1.868,7.088,7.088,0,0,0-5.091,1.795,7.535,7.535,0,0,0-2.2,5.055h13.552Z" transform="translate(-134.73 -68.316)" fill="#0e4775" fill-rule="evenodd"/>
    <path id="XMLID_9_" d="M305.5,89.6h3.809v32.2H305.5Z" transform="translate(-182.766 -53.676)" fill="#0e4775" fill-rule="evenodd"/>
    <path id="XMLID_8_" d="M337.6,89.6h3.809v32.2H337.6Z" transform="translate(-203.109 -53.676)" fill="#0e4775" fill-rule="evenodd"/>
    <path id="XMLID_7_" d="M383.514,114.228v3.553a14.494,14.494,0,0,0-3.26-1.319,12.34,12.34,0,0,0-3.3-.44,7.2,7.2,0,0,0-5.751,2.344,11.622,11.622,0,0,0,0,13.186,7.2,7.2,0,0,0,5.751,2.344,12.747,12.747,0,0,0,3.3-.44,15.216,15.216,0,0,0,3.26-1.319v3.516a13.422,13.422,0,0,1-3.3,1.1,16.449,16.449,0,0,1-3.626.366,10.842,10.842,0,0,1-8.314-3.3,12.491,12.491,0,0,1-3.077-8.864c0-3.773,1.026-6.739,3.113-8.9a11.286,11.286,0,0,1,8.534-3.26,18.009,18.009,0,0,1,3.443.366,13.3,13.3,0,0,1,3.223,1.062Z" transform="translate(-220.6 -68.379)" fill="#0e4775" fill-rule="evenodd"/>
    <path id="Path_392" data-name="Path 392" d="M439.322,115.923a5.711,5.711,0,0,0-4.835,2.381,12.987,12.987,0,0,0-.037,13.113,5.732,5.732,0,0,0,4.871,2.381,5.8,5.8,0,0,0,4.835-2.381,10.883,10.883,0,0,0,1.795-6.556,10.6,10.6,0,0,0-1.795-6.52,5.743,5.743,0,0,0-4.835-2.417Zm0-3.223a9.853,9.853,0,0,1,7.8,3.223c1.9,2.161,2.82,5.128,2.82,8.937s-.952,6.776-2.82,8.937a9.878,9.878,0,0,1-7.8,3.26,9.661,9.661,0,0,1-7.8-3.26c-1.868-2.161-2.82-5.128-2.82-8.937s.952-6.776,2.82-8.937a9.751,9.751,0,0,1,7.8-3.223Z" transform="translate(-260.841 -68.316)" fill="#0e4775" fill-rule="evenodd"/>
    <path id="XMLID_4_" d="M521.831,117.655a10.259,10.259,0,0,1,3.406-3.809,8.845,8.845,0,0,1,4.688-1.209,6.586,6.586,0,0,1,5.567,2.527c1.319,1.685,1.978,4.1,1.978,7.216v13.992h-3.809V122.489a8.557,8.557,0,0,0-1.172-4.945,4.159,4.159,0,0,0-3.589-1.612,5.929,5.929,0,0,0-4.688,1.978,7.882,7.882,0,0,0-1.721,5.348v13.113h-3.809V122.489a8.477,8.477,0,0,0-1.172-4.945,4.23,4.23,0,0,0-3.626-1.612,5.9,5.9,0,0,0-4.652,1.978,7.882,7.882,0,0,0-1.721,5.348v13.113H503.7V113.186h3.773v3.59a8.845,8.845,0,0,1,3.113-3.15,8.577,8.577,0,0,1,4.322-1.026,7.158,7.158,0,0,1,4.286,1.282,7.824,7.824,0,0,1,2.637,3.773Z" transform="translate(-308.371 -68.252)" fill="#0e4775" fill-rule="evenodd"/>
    <path id="XMLID_3_" d="M49.185,177.123c-.659-.22-1.209-.44-1.685-.623a18.755,18.755,0,0,0,5.567,1.575A24.017,24.017,0,0,1,49.185,177.123Z" transform="translate(-19.265 -108.747)" fill="#0e4775" fill-rule="evenodd"/>
    <path id="XMLID_2_" d="M66.148,77.3c-.549,0-1.1.037-1.648.073v6.813a12.459,12.459,0,0,1,1.648-.11,12.215,12.215,0,0,1,0,24.431,12.053,12.053,0,0,1-1.648-.11v6.849c.549.037,1.1.073,1.648.073a19.01,19.01,0,1,0,0-38.019Z" transform="translate(-30.039 -45.882)" fill="#0e4775" fill-rule="evenodd"/>
    <path id="XMLID_1_" d="M25.524,108a12.313,12.313,0,0,1-1.648-6.117,11.945,11.945,0,0,1,1.648-6.117V86.1a19,19,0,0,0,0,31.573Z" transform="translate(0 -51.458)" fill="#0e4775" fill-rule="evenodd"/>
  </g>
</svg>
